<svg id="Capa_1" data-name="Capa 1" xmlns="http://www.w3.org/2000/svg" viewBox="0 0 54.9 77.03"><defs><style>.cls-1{fill:#dfdfdf;}</style></defs><path class="cls-1" d="M54.9,41.34v.9H38.16v-.9c2.52,0,4.32-1.74,4.32-6.24V2.58L27.3,42.78h-.9L9.6,6.42V27.18c0,3.48.48,14.16,8,14.16v.9H0v-.9c8.16,0,8.7-10.74,8.7-14.16V5A7.28,7.28,0,0,0,2,.9V0H15.54l15,32.22L42.48,0h12V.9c-2.58,0-4.62,1.44-4.62,5.28V35.1C49.86,39.6,52.32,41.34,54.9,41.34Z" transform="translate(0 0)"/><path class="cls-1" d="M11,74a.43.43,0,0,1,.32.14l.89,1a4.92,4.92,0,0,1-1.82,1.41A6.38,6.38,0,0,1,7.8,77a6.14,6.14,0,0,1-2.43-.46A5.31,5.31,0,0,1,3.49,75.2a5.76,5.76,0,0,1-1.17-2,7.26,7.26,0,0,1-.4-2.49,6.72,6.72,0,0,1,.45-2.51,5.71,5.71,0,0,1,1.28-2,5.57,5.57,0,0,1,2-1.28,6.63,6.63,0,0,1,2.53-.46,6,6,0,0,1,2.36.43A5.5,5.5,0,0,1,12.28,66l-.76,1a.58.58,0,0,1-.17.18.5.5,0,0,1-.29.07.7.7,0,0,1-.4-.15,4.45,4.45,0,0,0-.51-.33,4.41,4.41,0,0,0-.78-.32,3.8,3.8,0,0,0-1.21-.16,4,4,0,0,0-1.57.3,3.66,3.66,0,0,0-1.24.85A3.9,3.9,0,0,0,4.52,69a5.17,5.17,0,0,0-.29,1.79,5.11,5.11,0,0,0,.29,1.82A3.88,3.88,0,0,0,5.3,73.9a3.27,3.27,0,0,0,1.17.84A3.75,3.75,0,0,0,7.91,75a5.89,5.89,0,0,0,.84,0,3.29,3.29,0,0,0,.69-.16,2.66,2.66,0,0,0,.59-.28,3.33,3.33,0,0,0,.56-.43.94.94,0,0,1,.18-.12A.44.44,0,0,1,11,74Z" transform="translate(0 0)"/><path class="cls-1" d="M27.92,76.81H26.17a.76.76,0,0,1-.48-.15.69.69,0,0,1-.27-.36l-.91-2.48h-5L18.6,76.3a.79.79,0,0,1-.75.51H16.07l4.77-12.14h2.31Zm-7.86-4.59h3.87l-1.48-4c-.07-.18-.14-.39-.22-.63s-.16-.51-.24-.79l-.23.79c-.08.25-.15.47-.22.65Z" transform="translate(0 0)"/><path class="cls-1" d="M40.19,64.67v1.79H34.81v3.6h4.54v1.8H34.81v5H32.53V64.67Z" transform="translate(0 0)"/><path class="cls-1" d="M53,64.67v1.79H47.6v3.37h4.24v1.74H47.6V75H53v1.81H45.32V64.67Zm-.48-2.9L50,63.58l-.18.11-.16.07a.43.43,0,0,1-.16,0H47.68l1.65-1.7.19-.16.18-.11h2.8Z" transform="translate(0 0)"/></svg>