<svg id="Capa_1" data-name="Capa 1" xmlns="http://www.w3.org/2000/svg" viewBox="0 0 187.08 79.22"><defs><style>.cls-1{fill:#1d1d1b;}</style></defs><path d="M54.9,43.62v.9H38.16v-.9c2.52,0,4.32-1.74,4.32-6.24V4.86L27.3,45.06h-.9L9.6,8.7V29.46c0,3.48.48,14.16,8,14.16v.9H0v-.9c8.16,0,8.7-10.74,8.7-14.16V7.26A7.26,7.26,0,0,0,2,3.18v-.9H15.54l15,32.22L42.48,2.28h12v.9c-2.58,0-4.62,1.44-4.62,5.28V37.38C49.86,41.88,52.32,43.62,54.9,43.62Z"/><path d="M73.2,45.06c-9.12,0-14-6.54-14-14.4s4.92-14.4,14-14.4,14.1,6.48,14.1,14.4S82.38,45.06,73.2,45.06Zm0-27.9c-4.44,0-6.54,2.64-6.54,13.5s2.1,13.5,6.54,13.5,6.54-2.64,6.54-13.5S77.7,17.16,73.2,17.16Z"/><path d="M103.38,44.52H92.16v-.9c2.28-.66,2.4-2.46,2.4-5.52V6.48c0-2.1-.54-3-3-3.66v-.9L100.92,0V38.1c0,3.3.3,5,2.46,5.52Z"/><path d="M119,44.52H107.88v-.9c2.28-.72,2.4-2.46,2.4-5.52v-15c0-2-.6-2.88-3.06-3.9v-.9l9.36-2V38.1c0,3.3.3,4.92,2.46,5.52ZM109.26,7.8a3.56,3.56,0,0,1,3.54-3.6,3.66,3.66,0,0,1,3.66,3.6,3.61,3.61,0,0,1-3.66,3.54A3.51,3.51,0,0,1,109.26,7.8Z"/><path d="M155,43.8,147.36,45c-1.68.24-1.68-1.08-1.68-1.08V40.44c-1.92,3.3-6.12,4.62-9,4.62-7.44,0-12.72-5.88-12.72-14.76,0-9.54,6.24-14,14.4-14a13.82,13.82,0,0,1,7.32,2V6.3c0-2.1-.6-2.82-3.06-3.48v-.9L152,0V39.24c0,2.94.6,3.48,3.06,3.66Zm-9.36-17.28c0-6.66-3.66-9.36-7.2-9.36-4.2,0-7.14,3.06-7.14,12.42,0,9.6,2.52,13.56,7.56,13.56,4,0,6.78-2.94,6.78-7.14Z"/><path d="M173,45.06c-9.12,0-14-6.54-14-14.4s4.92-14.4,14-14.4,14.1,6.48,14.1,14.4S182.16,45.06,173,45.06Zm0-27.9c-4.44,0-6.54,2.64-6.54,13.5s2.1,13.5,6.54,13.5,6.54-2.64,6.54-13.5S177.48,17.16,173,17.16Z"/><path class="cls-1" d="M77.06,76.23a.41.41,0,0,1,.32.14l.89,1a5,5,0,0,1-1.82,1.41,6.34,6.34,0,0,1-2.59.48,6.09,6.09,0,0,1-2.43-.46,5.38,5.38,0,0,1-1.85-1.28,5.64,5.64,0,0,1-1.17-2A7.39,7.39,0,0,1,68,73a6.76,6.76,0,0,1,.46-2.51,5.82,5.82,0,0,1,1.27-2,5.74,5.74,0,0,1,2-1.28,6.72,6.72,0,0,1,2.54-.46,5.92,5.92,0,0,1,2.36.43,5.56,5.56,0,0,1,1.74,1.15l-.76,1a1,1,0,0,1-.17.18.5.5,0,0,1-.29.07.69.69,0,0,1-.4-.15,4.57,4.57,0,0,0-.51-.33,4.71,4.71,0,0,0-.79-.33,4.5,4.5,0,0,0-2.77.15,3.47,3.47,0,0,0-1.24.85,4.12,4.12,0,0,0-.81,1.35A5.29,5.29,0,0,0,70.31,73a5.39,5.39,0,0,0,.29,1.82,4.1,4.1,0,0,0,.79,1.34,3.24,3.24,0,0,0,1.17.84,3.63,3.63,0,0,0,1.44.29,7,7,0,0,0,.84,0,4.37,4.37,0,0,0,.69-.16,3.19,3.19,0,0,0,.59-.28,3.64,3.64,0,0,0,.56-.43.94.94,0,0,1,.18-.12A.45.45,0,0,1,77.06,76.23Z"/><path class="cls-1" d="M94,79.09H92.26a.73.73,0,0,1-.48-.15.88.88,0,0,1-.28-.36l-.9-2.48h-5l-.91,2.48a.79.79,0,0,1-.27.35.71.71,0,0,1-.48.16H82.16L86.93,67h2.31ZM86.15,74.5H90l-1.48-4c-.07-.18-.14-.39-.22-.63s-.16-.51-.24-.79l-.23.79a6.76,6.76,0,0,1-.23.65Z"/><path class="cls-1" d="M106.28,67v1.79h-5.39v3.6h4.55v1.8h-4.55v5H98.62V67Z"/><path class="cls-1" d="M119.07,67v1.79h-5.38v3.37h4.24v1.74h-4.24v3.43h5.38v1.81h-7.66V67Zm-.48-2.9-2.48,1.81-.18.11-.16.07-.16,0h-1.84l1.65-1.7a1.35,1.35,0,0,1,.19-.16.54.54,0,0,1,.18-.11.65.65,0,0,1,.21,0h2.59Z"/></svg>